<svg xmlns="http://www.w3.org/2000/svg" xmlns:xlink="http://www.w3.org/1999/xlink" width="58" height="22" viewBox="0 0 58 22"><defs><style>.a{fill:url(#a);}.b{fill:url(#b);}</style><linearGradient id="a" x2="0.605" y2="1.182" gradientUnits="objectBoundingBox"><stop offset="0" stop-color="#f44336"/><stop offset="1" stop-color="#ff6155"/></linearGradient><linearGradient id="b" x1="0.597" x2="0.597" y2="1" gradientUnits="objectBoundingBox"><stop offset="0" stop-color="#c81609"/><stop offset="1" stop-color="#ff6155"/></linearGradient></defs><g transform="translate(-141 -517)"><path class="a" d="M-6-21.5H12a2,2,0,0,1,2,2v46a2,2,0,0,1-2,2H-8v-48A2,2,0,0,1-6-21.5Z" transform="translate(177.5 525) rotate(90)"/><path class="b" d="M0,0H8A0,0,0,0,1,8,0V8A0,0,0,0,1,8,8H8A8,8,0,0,1,0,0V0A0,0,0,0,1,0,0Z" transform="translate(149 517) rotate(90)"/></g></svg>