<svg width="22" height="11" viewBox="0 0 22 11" fill="none" xmlns="http://www.w3.org/2000/svg">
<path d="M2.67109 7.89287C2.63248 7.89301 2.59424 7.88524 2.55874 7.87005C2.52323 7.85486 2.49122 7.83257 2.46465 7.80455C2.43662 7.77798 2.41433 7.74596 2.39914 7.71046C2.38395 7.67496 2.37619 7.63672 2.37633 7.5981V5.45707H0.294882C0.256267 5.45721 0.218032 5.44944 0.182529 5.43425C0.147026 5.41906 0.115007 5.39677 0.0884407 5.36875C0.0604156 5.34218 0.0381226 5.31016 0.0229333 5.27466C0.00774394 5.23916 -2.05034e-05 5.20092 0.000117665 5.1623V4.25247C-0.00212245 4.17133 0.0276986 4.09257 0.08312 4.03326C0.110208 4.00416 0.143225 3.98122 0.179942 3.96599C0.216658 3.95075 0.256217 3.94357 0.295947 3.94494H2.37526V1.87413C2.3739 1.83441 2.38107 1.79485 2.39631 1.75813C2.41155 1.72141 2.43449 1.68839 2.46358 1.66131C2.51885 1.60764 2.59299 1.57783 2.67003 1.57831H3.68734C3.76848 1.57607 3.84724 1.60589 3.90655 1.66131C3.93564 1.68839 3.95859 1.72141 3.97382 1.75813C3.98906 1.79485 3.99624 1.83441 3.99487 1.87413V3.94387H6.05291C6.09354 3.9428 6.13397 3.95009 6.17168 3.96528C6.20939 3.98047 6.24357 4.00325 6.27212 4.0322C6.30106 4.06074 6.32384 4.09493 6.33903 4.13263C6.35422 4.17034 6.36151 4.21077 6.36044 4.25141V5.16124C6.36181 5.20097 6.35463 5.24053 6.33939 5.27725C6.32415 5.31396 6.30121 5.34698 6.27212 5.37407C6.21281 5.42949 6.13405 5.45931 6.05291 5.45707H3.99594V7.59704C3.9973 7.63677 3.99012 7.67633 3.97489 7.71305C3.95965 7.74976 3.93671 7.78278 3.90761 7.80987C3.8483 7.86529 3.76955 7.89511 3.6884 7.89287H2.67109ZM7.84916 8.28341C7.81055 8.28354 7.77231 8.27578 7.73681 8.26059C7.7013 8.2454 7.66929 8.22311 7.64272 8.19508C7.61456 8.16839 7.59219 8.1362 7.577 8.10051C7.56181 8.06481 7.55411 8.02637 7.5544 7.98758V0.314115C7.55216 0.232972 7.58198 0.154215 7.6374 0.0949046C7.66449 0.0658093 7.6975 0.0428674 7.73422 0.0276301C7.77094 0.0123928 7.8105 0.00521496 7.85023 0.0065814H11.1012C11.9723 -0.0448014 12.8345 0.20589 13.5423 0.716358C13.8356 0.956858 14.0682 1.26293 14.2214 1.60989C14.3747 1.95684 14.4442 2.33496 14.4244 2.71374C14.4398 3.21051 14.306 3.70049 14.0403 4.12052C13.7777 4.51208 13.4115 4.82301 12.9825 5.01865L14.5787 7.90351C14.6003 7.9435 14.6123 7.98793 14.6139 8.03333C14.6133 8.09754 14.5877 8.159 14.5426 8.20466C14.5202 8.22953 14.4928 8.24926 14.4621 8.26248C14.4314 8.27571 14.3982 8.28212 14.3648 8.28128H12.6974C12.5931 8.28617 12.49 8.25791 12.4028 8.20056C12.3156 8.1432 12.2489 8.0597 12.2121 7.96204L10.9128 5.39748H9.77631V7.98758C9.77767 8.02731 9.77049 8.06687 9.75526 8.10358C9.74002 8.1403 9.71708 8.17332 9.68798 8.2004C9.62867 8.25583 9.54991 8.28565 9.46877 8.28341H7.84916ZM11.0884 3.66081C11.3699 3.68062 11.648 3.58932 11.8631 3.40649C11.9541 3.31434 12.0248 3.20414 12.0706 3.08298C12.1165 2.96183 12.1364 2.83242 12.1291 2.70309C12.1353 2.57115 12.115 2.4393 12.0693 2.31536C12.0236 2.19143 11.9535 2.07793 11.8631 1.98161C11.7593 1.88577 11.6371 1.81217 11.5039 1.76532C11.3707 1.71847 11.2293 1.69937 11.0884 1.70919H9.77631V3.65975L11.0884 3.66081ZM15.9472 10.5298C15.8661 10.532 15.7873 10.5022 15.728 10.4468C15.6989 10.4197 15.676 10.3867 15.6607 10.35C15.6455 10.3133 15.6383 10.2737 15.6397 10.234V2.43068C15.6383 2.39095 15.6455 2.35139 15.6607 2.31467C15.676 2.27795 15.6989 2.24494 15.728 2.21785C15.7873 2.16243 15.8661 2.13261 15.9472 2.13485H17.354C17.3933 2.13346 17.4324 2.1401 17.469 2.15438C17.5056 2.16865 17.5389 2.19025 17.5668 2.21785C17.5944 2.2458 17.616 2.2791 17.6303 2.31569C17.6446 2.35229 17.6512 2.39142 17.6498 2.43068V2.85633C17.8642 2.57823 18.1431 2.35648 18.4623 2.21021C18.7816 2.06393 19.1316 1.99753 19.4823 2.01673C19.8165 1.99916 20.1506 2.05395 20.4617 2.17737C20.7728 2.30078 21.0536 2.48991 21.2849 2.73183C21.7572 3.30501 22.0069 4.0293 21.9883 4.77177C21.9961 4.87392 22 5.01971 22 5.20913C22 5.39854 21.9961 5.54823 21.9883 5.65819C22.0004 6.3913 21.7493 7.10447 21.2806 7.66834C21.0526 7.91414 20.7736 8.10712 20.4631 8.23377C20.1526 8.36041 19.8182 8.41767 19.4833 8.40152C19.1553 8.42405 18.8268 8.36454 18.5275 8.22837C18.2282 8.09219 17.9675 7.88363 17.769 7.62152V10.2329C17.7704 10.2722 17.7638 10.3113 17.7495 10.3479C17.7352 10.3845 17.7136 10.4178 17.686 10.4457C17.6581 10.4733 17.6248 10.4949 17.5882 10.5092C17.5516 10.5235 17.5124 10.5301 17.4732 10.5287L15.9472 10.5298ZM18.797 6.7585C18.94 6.77227 19.0842 6.75097 19.2172 6.69646C19.3501 6.64195 19.4678 6.55586 19.5599 6.44565C19.7297 6.18714 19.822 5.88549 19.826 5.57625C19.8338 5.49751 19.8377 5.37549 19.8377 5.21019C19.8377 5.0449 19.8338 4.92287 19.826 4.84413C19.822 4.53489 19.7297 4.23324 19.5599 3.97473C19.4678 3.86452 19.3501 3.77843 19.2172 3.72392C19.0842 3.66941 18.94 3.64811 18.797 3.66188C18.654 3.65133 18.5105 3.67541 18.3788 3.7321C18.2471 3.78878 18.131 3.87639 18.0404 3.9875C17.867 4.2267 17.7719 4.51364 17.7679 4.80901C17.7601 4.91117 17.7562 5.06086 17.7562 5.25808C17.7562 5.4553 17.7601 5.60108 17.7679 5.69544C17.7727 5.97364 17.8705 6.24223 18.0457 6.45842C18.1402 6.56178 18.2569 6.64239 18.387 6.69418C18.5171 6.74597 18.6573 6.7676 18.797 6.75744V6.7585Z" fill="#272727"/>
</svg>
