<svg width="24" height="21" viewBox="0 0 24 21" fill="none" xmlns="http://www.w3.org/2000/svg">
<path d="M6.76048 18.6396C6.76048 18.7661 6.72298 18.8898 6.65272 18.9949C6.58246 19.1001 6.4826 19.1821 6.36575 19.2306C6.2489 19.279 6.12031 19.2918 5.99623 19.2671C5.87215 19.2425 5.75816 19.1817 5.66865 19.0923C5.57914 19.0029 5.51814 18.889 5.49336 18.765C5.46857 18.6409 5.48112 18.5123 5.5294 18.3954C5.57769 18.2785 5.65955 18.1785 5.76465 18.1081C5.86974 18.0377 5.99334 18 6.11984 17.9998C6.20393 17.9997 6.28721 18.0162 6.36493 18.0483C6.44265 18.0804 6.51328 18.1275 6.57279 18.1869C6.63229 18.2463 6.67949 18.3169 6.71169 18.3946C6.7439 18.4723 6.76048 18.5555 6.76048 18.6396V18.6396Z" stroke="#272727" stroke-width="2" stroke-linecap="round" stroke-linejoin="round"/>
<path d="M13.8005 18.6396C13.8005 18.7661 13.763 18.8898 13.6928 18.9949C13.6225 19.1001 13.5226 19.1821 13.4058 19.2306C13.2889 19.279 13.1603 19.2918 13.0363 19.2671C12.9122 19.2425 12.7982 19.1817 12.7087 19.0923C12.6192 19.0029 12.5582 18.889 12.5334 18.765C12.5086 18.6409 12.5212 18.5123 12.5694 18.3954C12.6177 18.2785 12.6996 18.1785 12.8047 18.1081C12.9098 18.0377 13.0334 18 13.1599 17.9998C13.244 17.9997 13.3273 18.0162 13.405 18.0483C13.4827 18.0804 13.5533 18.1275 13.6128 18.1869C13.6723 18.2463 13.7195 18.3169 13.7517 18.3946C13.7839 18.4723 13.8005 18.5555 13.8005 18.6396V18.6396Z" stroke="#272727" stroke-width="2" stroke-linecap="round" stroke-linejoin="round"/>
<path d="M1 5.84H3.55992L5.27504 14.4094C5.33363 14.7041 5.494 14.9688 5.72808 15.1572C5.96215 15.3456 6.25503 15.4457 6.55544 15.4399H12.7762C13.0766 15.4457 13.3694 15.3456 13.6035 15.1572C13.8376 14.9688 13.998 14.7041 14.0566 14.4094L15.08 9.03968H4.19968" stroke="#272727" stroke-width="2" stroke-linecap="round" stroke-linejoin="round"/>
<path d="M18.6 1V9.8" stroke="#272727" stroke-width="2" stroke-linecap="round" stroke-linejoin="round"/>
<path d="M14.2 5.39999H23" stroke="#272727" stroke-width="2" stroke-linecap="round" stroke-linejoin="round"/>
</svg>
