<svg xmlns="http://www.w3.org/2000/svg" xmlns:xlink="http://www.w3.org/1999/xlink" width="88.915" height="88.915" viewBox="0 0 88.915 88.915"><defs><style>.a{fill:url(#a);}</style><linearGradient id="a" x1="0.5" x2="0.5" y2="1" gradientUnits="objectBoundingBox"><stop offset="0" stop-color="#6fcfee"/><stop offset="1" stop-color="#40c4ff"/></linearGradient></defs><path class="a" d="M77.964,39.107A38.857,38.857,0,1,1,39.107.25,38.857,38.857,0,0,1,77.964,39.107ZM34.613,59.682l28.83-28.83a2.507,2.507,0,0,0,0-3.545L59.9,23.762a2.507,2.507,0,0,0-3.545,0L32.84,47.273,21.863,36.3a2.507,2.507,0,0,0-3.545,0l-3.545,3.545a2.507,2.507,0,0,0,0,3.545L31.067,59.682a2.507,2.507,0,0,0,3.545,0Z" transform="translate(11.949 -0.286) rotate(9)"/></svg>