<svg id="logo-main" xmlns="http://www.w3.org/2000/svg" xmlns:xlink="http://www.w3.org/1999/xlink" width="68.619" height="20" viewBox="0 0 68.619 20">
  <defs>
    <linearGradient id="linear-gradient" y1="0.5" x2="1" y2="0.5" gradientUnits="objectBoundingBox">
      <stop offset="0" stop-color="#6fcfee"/>
      <stop offset="1" stop-color="#1685c7"/>
    </linearGradient>
    <linearGradient id="linear-gradient-2" y1="0.5" x2="1" y2="0.5" gradientUnits="objectBoundingBox">
      <stop offset="0" stop-color="#ddf2fa"/>
      <stop offset="1" stop-color="#6fcfee"/>
    </linearGradient>
  </defs>
  <g id="Group_8" data-name="Group 8">
    <ellipse id="Ellipse_1" data-name="Ellipse 1" cx="9.666" cy="10" rx="9.666" ry="10" fill="none"/>
    <g id="Group_23158" data-name="Group 23158" transform="translate(2.272 0.847)">
      <g id="Group_7" data-name="Group 7" transform="translate(0 0)">
        <g id="Group_6" data-name="Group 6">
          <path id="Path_10" data-name="Path 10" d="M432.284,201.872c-7.619,0-7.32,7.254-7.32,7.254,0,3.627,2.732,5.832,4.091,7.254.635.664,2.386,3.155,3.228,3.155s2.593-2.49,3.228-3.155c1.359-1.422,4.091-3.627,4.091-7.254C439.6,209.126,439.9,201.872,432.284,201.872Z" transform="translate(-424.962 -201.467)" fill="url(#linear-gradient)"/>
          <path id="Path_11" data-name="Path 11" d="M441.687,207.051c0,3.416-2.335,6.893-3.2,8.327s-1.008,2.757-1.738,3.259a.563.563,0,0,1-.6,0c-.73-.5-.868-1.826-1.738-3.259s-3.209-4.911-3.205-8.327c.005-3.975,2.489-6.4,5.244-6.4S441.682,203.076,441.687,207.051Z" transform="translate(-429.122 -200.656)" fill="#6fcfee"/>
          <path id="Path_12" data-name="Path 12" d="M443.864,207.051a25.467,25.467,0,0,1-1.879,8.327c-.51,1.433-.532,2.757-.96,3.259a.361.361,0,0,1-.47,0c-.428-.5-.45-1.826-.96-3.259a25.464,25.464,0,0,1-1.879-8.327c0-3.975,1.459-6.4,3.074-6.4S443.861,203.076,443.864,207.051Z" transform="translate(-433.469 -200.656)" fill="url(#linear-gradient-2)"/>
        </g>
      </g>
    </g>
  </g>
  <path id="Path_345" data-name="Path 345" d="M9.972-82.13A4.062,4.062,0,0,1,7.064-83.1a3.755,3.755,0,0,1-1.108-2.664l-.016-.708.016-.708A3.732,3.732,0,0,1,7.08-89.84a4.053,4.053,0,0,1,2.891-.982,4.053,4.053,0,0,1,2.891.982,3.732,3.732,0,0,1,1.124,2.656q.016.193.016.708t-.016.708A3.755,3.755,0,0,1,12.879-83.1,4.062,4.062,0,0,1,9.972-82.13Zm0-1.594a1.646,1.646,0,0,0,1.317-.539,2.552,2.552,0,0,0,.514-1.586q.016-.161.016-.628T11.8-87.1a2.552,2.552,0,0,0-.514-1.586,1.646,1.646,0,0,0-1.317-.539,1.646,1.646,0,0,0-1.317.539A2.552,2.552,0,0,0,8.14-87.1l-.016.628.016.628a2.552,2.552,0,0,0,.514,1.586A1.646,1.646,0,0,0,9.972-83.723Zm6.216,1.433a.371.371,0,0,1-.273-.113.373.373,0,0,1-.112-.274V-93.334a.366.366,0,0,1,.112-.282.386.386,0,0,1,.273-.1h1.333a.379.379,0,0,1,.281.1.381.381,0,0,1,.1.282v10.657a.388.388,0,0,1-.1.274.365.365,0,0,1-.281.113Zm7.019.161a5,5,0,0,1-2.024-.362,3.156,3.156,0,0,1-1.213-.853,1.457,1.457,0,0,1-.394-.845.323.323,0,0,1,.112-.258.383.383,0,0,1,.257-.1h1.269a.3.3,0,0,1,.241.113q.064.048.337.29a1.977,1.977,0,0,0,.642.4,2.226,2.226,0,0,0,.819.145,1.99,1.99,0,0,0,1.06-.258.8.8,0,0,0,.418-.708.8.8,0,0,0-.185-.547,1.6,1.6,0,0,0-.667-.378,11.675,11.675,0,0,0-1.43-.362,4.282,4.282,0,0,1-2.016-.885,2.036,2.036,0,0,1-.651-1.578,2.136,2.136,0,0,1,.385-1.215,2.777,2.777,0,0,1,1.148-.934,4.218,4.218,0,0,1,1.823-.362,4.6,4.6,0,0,1,1.863.346,3.311,3.311,0,0,1,1.2.821,1.379,1.379,0,0,1,.41.845.341.341,0,0,1-.1.25.339.339,0,0,1-.249.1H25.07a.453.453,0,0,1-.273-.113,4.112,4.112,0,0,1-.353-.306,1.788,1.788,0,0,0-.562-.354,2.022,2.022,0,0,0-.755-.129,1.467,1.467,0,0,0-.924.258.817.817,0,0,0-.329.676.754.754,0,0,0,.161.5,1.54,1.54,0,0,0,.626.37,8.871,8.871,0,0,0,1.4.354,4.4,4.4,0,0,1,2.209.95,2.109,2.109,0,0,1,.667,1.578,2.17,2.17,0,0,1-.98,1.835A4.623,4.623,0,0,1,23.207-82.13Zm8.979,0a3.86,3.86,0,0,1-2.835-1.038,4.13,4.13,0,0,1-1.116-2.922l-.016-.4.016-.4a4.153,4.153,0,0,1,1.132-2.881,3.821,3.821,0,0,1,2.819-1.046,3.727,3.727,0,0,1,2.931,1.159,4.465,4.465,0,0,1,1.036,3.091v.338a.373.373,0,0,1-.112.274.391.391,0,0,1-.289.113H30.418v.129a2.553,2.553,0,0,0,.49,1.489,1.5,1.5,0,0,0,1.261.6,1.842,1.842,0,0,0,1.526-.74.951.951,0,0,1,.233-.225.569.569,0,0,1,.265-.048h1.381a.372.372,0,0,1,.249.089.274.274,0,0,1,.1.217,1.5,1.5,0,0,1-.458.91,3.791,3.791,0,0,1-1.309.91A4.738,4.738,0,0,1,32.185-82.13ZM33.968-87.2v-.048a2.34,2.34,0,0,0-.474-1.529,1.6,1.6,0,0,0-1.309-.58,1.575,1.575,0,0,0-1.3.58,2.368,2.368,0,0,0-.466,1.529v.048Zm4.272,4.91a.371.371,0,0,1-.273-.113.373.373,0,0,1-.112-.274v-7.582a.4.4,0,0,1,.112-.282.359.359,0,0,1,.273-.121h1.3a.391.391,0,0,1,.289.113.393.393,0,0,1,.112.29v.66a2.534,2.534,0,0,1,.972-.789,3.137,3.137,0,0,1,1.341-.274h.659a.379.379,0,0,1,.281.1.381.381,0,0,1,.1.282v1.159a.388.388,0,0,1-.1.274.365.365,0,0,1-.281.113H41.662a1.6,1.6,0,0,0-1.189.435A1.612,1.612,0,0,0,40.04-87.1v4.427a.373.373,0,0,1-.112.274.391.391,0,0,1-.289.113Zm8.609.161a3.4,3.4,0,0,1-1.5-.33,2.729,2.729,0,0,1-1.076-.893,2.118,2.118,0,0,1-.394-1.24,2.125,2.125,0,0,1,.883-1.771,5.3,5.3,0,0,1,2.425-.918l2.2-.322v-.338A1.445,1.445,0,0,0,49.034-89a1.562,1.562,0,0,0-1.14-.354,1.63,1.63,0,0,0-.859.2,2.81,2.81,0,0,0-.522.394q-.193.209-.257.274a.243.243,0,0,1-.241.193H44.778a.354.354,0,0,1-.249-.1.334.334,0,0,1-.1-.258,1.743,1.743,0,0,1,.394-.918,2.972,2.972,0,0,1,1.164-.885,4.509,4.509,0,0,1,1.927-.37,3.822,3.822,0,0,1,2.763.853,3,3,0,0,1,.867,2.238v5.055a.388.388,0,0,1-.1.274.365.365,0,0,1-.281.113h-1.3a.371.371,0,0,1-.273-.113.373.373,0,0,1-.112-.274V-83.3a2.623,2.623,0,0,1-1,.845A3.546,3.546,0,0,1,46.85-82.13Zm.546-1.529a1.926,1.926,0,0,0,1.446-.58,2.333,2.333,0,0,0,.562-1.69v-.338l-1.606.258a3.494,3.494,0,0,0-1.405.467.937.937,0,0,0-.474.789.916.916,0,0,0,.434.8A1.836,1.836,0,0,0,47.4-83.659Z" transform="translate(17.079 97.291)" fill="#2bc5f4"/>
</svg>
