<svg xmlns="http://www.w3.org/2000/svg" width="22.264" height="32" viewBox="0 0 22.264 32"><defs><style>.a{fill:#fff;}</style></defs><g transform="translate(-4.463 -0.992)"><path class="a" d="M15.669.992a.686.686,0,0,0-.466.175l-2,1.786-2.619-.581a.689.689,0,0,0-.805.46L8.936,5.375,6.389,6.18a.7.7,0,0,0-.477.805L6.454,9.61,4.646,11.582a.7.7,0,0,0-.005.937l1.78,1.994-.575,2.619a.693.693,0,0,0,.46.811l2.542.838.805,2.553a.707.707,0,0,0,.805.477l2.624-.548,1.972,1.808a.705.705,0,0,0,.937.005l1.994-1.78,2.619.575a.7.7,0,0,0,.811-.455l.833-2.547,2.558-.8a.7.7,0,0,0,.471-.805l-.542-2.624,1.808-1.978a.69.69,0,0,0,.005-.931l-1.78-2,.575-2.613a.689.689,0,0,0-.455-.811l-2.547-.844L21.536,2.91a.7.7,0,0,0-.805-.471l-2.624.548L16.134,1.173A.693.693,0,0,0,15.669.992ZM15.6,4.471a7.653,7.653,0,1,1-7.653,7.653A7.656,7.656,0,0,1,15.6,4.471Zm0,1.391a6.262,6.262,0,1,0,6.256,6.262A6.264,6.264,0,0,0,15.6,5.862ZM12.667,22.768l-1.934.4a2.1,2.1,0,0,1-.411.044,2.016,2.016,0,0,1-.986-.252V32.3a.7.7,0,0,0,1.008.625L15.6,30.29l5.248,2.63a.72.72,0,0,0,.312.071.665.665,0,0,0,.367-.1.687.687,0,0,0,.329-.592V22.96a2.068,2.068,0,0,1-1.1.318,2.132,2.132,0,0,1-.449-.049l-1.923-.422-1.468,1.309a2.094,2.094,0,0,1-2.794-.016Z"/></g></svg>