<svg xmlns="http://www.w3.org/2000/svg" width="129.602" height="108" viewBox="0 0 129.602 108"><defs><style>.a{fill:#cecece;}.b{fill:#767676;}.c{fill:#eee;}.d{fill-rule:evenodd;}</style></defs><g transform="translate(-15779.001 1061.353)"><path class="a" d="M21.845,36.12,35.17,84.358l49.875-14.7L68.307,19.294l13.449,6.381,7.2-14.375S75.05,3.284,64.725.87,47.8,1.835,47.8,1.835s5.282,13.547-6.721,17.459S24.1,9.773,24.1,9.773s-7.239,2.8-13.492,11.066S0,41.3,0,41.3l15.342,7.231Z" transform="translate(15808.179 -1061.353) rotate(11)"/><path class="b" d="M0,29.932c.019-1.9.11-25.088.11-25.088S0,2.359,1.672,1.164,6.781.062,6.781.062L70.144,0s4.671,1.508,6.218,4.02a11.324,11.324,0,0,1,1.275,5.967s-.925,4.256-4.416,6.062-5.713.175-9.547,1.162a27.005,27.005,0,0,0-7.565,3.63l-6.537,5.534-5.9-6.055-3.235,3.2,5.654,5.8-2.656,2.249-6.245-6.327-3.141,3.117,5.84,6.154s-5.187,4.206-5.608,4.362c-1.351.5-3.549.974-4.774-1.413s-1.044-6.854-1.983-9.1a11.182,11.182,0,0,0-9.265-6.448c-5.136-.314-7.231,1.164-9.329,3.05s-2.614,5.2-4.665,6.458S-.018,31.828,0,29.932Z" transform="matrix(-0.985, 0.174, -0.174, -0.985, 15862.3, -966.838)"/><g transform="translate(15842.104 -1021.486)"><circle class="c" cx="26" cy="26" r="26" transform="translate(0.5 0.996)"/><path class="d" d="M24.052,24.054a4.156,4.156,0,0,1,5.881,0l16,16a4.157,4.157,0,1,1-5.876,5.881l-16-16a4.156,4.156,0,0,1,0-5.881Z" transform="translate(19.347 19.344)"/><path class="d" d="M27.014,49.873A22.858,22.858,0,1,0,4.156,27.014,22.858,22.858,0,0,0,27.014,49.873ZM54.029,27.014A27.014,27.014,0,1,1,27.014,0,27.014,27.014,0,0,1,54.029,27.014Z"/><path d="M8.649,0C4.736,0,2.2,1.737.212,4.835A1.348,1.348,0,0,0,.465,6.582L2.58,8.319A1.116,1.116,0,0,0,4.21,8.1C5.439,6.432,6.349,5.472,8.268,5.472c1.508,0,3.374,1.052,3.374,2.636,0,1.2-.913,1.813-2.4,2.718C7.5,11.881,5.2,13.194,5.2,16.479V17a1.229,1.229,0,0,0,1.177,1.275H9.934A1.229,1.229,0,0,0,11.111,17v-.307c0-2.277,6.141-2.372,6.141-8.533C17.252,3.52,12.81,0,8.649,0ZM8.158,19.839a3.55,3.55,0,0,0-3.4,3.68,3.55,3.55,0,0,0,3.4,3.68,3.55,3.55,0,0,0,3.4-3.68A3.55,3.55,0,0,0,8.158,19.839Z" transform="translate(17.946 14.436) rotate(-6)"/></g></g></svg>