<svg width="56" height="56" viewBox="0 0 56 56" fill="none" xmlns="http://www.w3.org/2000/svg">
<path d="M35.1778 2.53087C36.2642 2.21555 37.4256 2.27927 38.471 2.71157C39.5165 3.14386 40.3837 3.919 40.9301 4.90954L43.8403 10.1934C44.2954 11.0199 44.9757 11.7002 45.8021 12.1552L51.0877 15.0671C52.0788 15.613 52.8546 16.48 53.2876 17.5255C53.7205 18.5709 53.7847 19.7326 53.4696 20.8194L51.792 26.6133C51.5294 27.5193 51.5294 28.4812 51.792 29.3873L53.4696 35.1811C53.7838 36.2675 53.7192 37.4284 53.2863 38.4732C52.8535 39.5179 52.0781 40.3844 51.0877 40.9302L45.8037 43.8404C44.9773 44.2954 44.297 44.9757 43.842 45.8021L40.9301 51.0877C40.3842 52.0788 39.5172 52.8547 38.4717 53.2876C37.4263 53.7205 36.2646 53.7847 35.1778 53.4697L29.3839 51.792C28.4779 51.5294 27.5159 51.5294 26.6099 51.792L20.8161 53.4697C19.7297 53.7839 18.5688 53.7192 17.524 53.2864C16.4793 52.8535 15.6128 52.0781 15.067 51.0877L12.1568 45.8004C11.7018 44.974 11.0215 44.2937 10.1951 43.8387L4.90951 40.9302C3.91897 40.3837 3.14383 39.5165 2.71153 38.4711C2.27924 37.4257 2.21551 36.2643 2.53084 35.1778L4.20853 29.384C4.47109 28.4779 4.47109 27.516 4.20853 26.6099L2.53084 20.8194C2.21551 19.733 2.27924 18.5716 2.71153 17.5262C3.14383 16.4807 3.91897 15.6135 4.90951 15.0671L10.1967 12.1568C11.0223 11.702 11.702 11.0224 12.1568 10.1968L15.067 4.90954C15.6135 3.919 16.4807 3.14386 17.5261 2.71157C18.5715 2.27927 19.7329 2.21555 20.8194 2.53087L26.6132 4.20856C27.5193 4.47112 28.4812 4.47112 29.3872 4.20856L35.1778 2.53087Z" fill="#FF931E"/>
<path d="M27.9905 41.2873C35.3296 41.2873 41.2792 35.3378 41.2792 27.9986C41.2792 20.6595 35.3296 14.71 27.9905 14.71C20.6514 14.71 14.7018 20.6595 14.7018 27.9986C14.7018 35.3378 20.6514 41.2873 27.9905 41.2873Z" fill="url(#paint0_linear_35_5636)"/>
<defs>
<linearGradient id="paint0_linear_35_5636" x1="17.6785" y1="13.2748" x2="47.2857" y2="55.6125" gradientUnits="userSpaceOnUse">
<stop stop-color="#FF931E"/>
<stop offset="1" stop-color="#C60055"/>
</linearGradient>
</defs>
</svg>
