<svg xmlns="http://www.w3.org/2000/svg" xmlns:xlink="http://www.w3.org/1999/xlink" width="181.784" height="256" viewBox="0 0 181.784 256"><defs><style>.a{fill:url(#a);}.b{fill:#6fcfee;}.c{fill:url(#b);}.d{fill:url(#c);}.e{fill:#1685c7;}</style><linearGradient id="a" y1="0.5" x2="1" y2="0.5" gradientUnits="objectBoundingBox"><stop offset="0" stop-color="#6fcfee"/><stop offset="1" stop-color="#1685c7"/></linearGradient><linearGradient id="b" y1="0.5" x2="1" y2="0.5" gradientUnits="objectBoundingBox"><stop offset="0" stop-color="#ddf2fa"/><stop offset="1" stop-color="#6fcfee"/></linearGradient><linearGradient id="c" x1="0" y1="0.5" y2="0.5" xlink:href="#b"/></defs><path class="a" d="M182.141,3.79c-94.582,0-90.866,92.5-90.866,92.5,0,46.249,33.92,74.37,50.788,92.512,7.963,8.465,29.634,40.224,40.078,40.224s32.2-31.76,40.078-40.224c16.881-18.143,50.8-46.263,50.8-92.512C273.02,96.289,276.709,3.79,182.141,3.79Z" transform="translate(-91.255 0.336)"/><path class="b" d="M250.163,81.185c0,43.422-31.044,87.495-42.643,105.7s-13.4,35-23.127,41.373a7.808,7.808,0,0,1-7.988,0c-9.708-6.378-11.542-23.176-23.112-41.373s-42.643-62.351-42.643-105.7C110.764,30.721,143.84,0,180.428,0S250.106,30.721,250.163,81.185Z" transform="translate(-89.536 0)"/><path class="c" d="M193.6,81.185c0,43.422-13.934,87.495-19.138,105.7s-5.443,35-9.8,41.373a3.148,3.148,0,0,1-4.779,0c-4.355-6.378-4.594-23.176-9.8-41.373S131,124.539,131,81.185C131,30.721,145.849,0,162.287,0S193.564,30.721,193.6,81.185Z" transform="translate(-71.641 0)"/><path class="d" d="M161.009,195.013c-18.245,0-15.426-18.583-15.426-18.583h30.863S179.265,195.013,161.009,195.013Z" transform="translate(-70.386 60.987)"/><ellipse class="e" cx="15.437" cy="3.277" rx="15.437" ry="3.277" transform="translate(75.184 234.14)"/></svg>