<svg xmlns="http://www.w3.org/2000/svg" xmlns:xlink="http://www.w3.org/1999/xlink" width="200" height="200" viewBox="0 0 200 200"><defs><style>.a{fill:#1685c7;}.b,.f{fill:#2bc5f4;}.b{opacity:0.26;}.c{fill:#6fcfee;}.d{fill:url(#a);}.e{fill:#0085cd;}.g{fill:#fff;opacity:0.96;}.h{fill:#40c4ff;opacity:0.17;}.i{opacity:0.35;}.j{fill:#272727;}.k{fill:#e4f8ff;}.l{fill:none;stroke:#1685c7;stroke-linecap:round;stroke-linejoin:round;stroke-width:3px;}.m{filter:url(#b);}</style><linearGradient id="a" x1="0.675" y1="10.449" x2="0.397" y2="8.898" gradientUnits="objectBoundingBox"><stop offset="0" stop-color="#c0d6ff"/><stop offset="0.298" stop-color="#c4daff"/><stop offset="0.649" stop-color="#d3e9ff"/><stop offset="1" stop-color="#e9ffff"/></linearGradient><filter id="b" x="119.853" y="85.294" width="63.525" height="63.525" filterUnits="userSpaceOnUse"><feOffset dy="3" input="SourceAlpha"/><feGaussianBlur stdDeviation="3" result="c"/><feFlood flood-opacity="0.122"/><feComposite operator="in" in2="c"/><feComposite in="SourceGraphic"/></filter></defs><g transform="translate(-0.059 0.249)"><circle class="a" cx="100" cy="100" r="100" transform="translate(0.059 -0.249)"/><g transform="translate(25.74 30.491)"><g transform="translate(0 0)"><path class="b" d="M399.155,256.939l-69.423-74.311,39.58-12.275,43.065,50.7,16.049,36.153Z" transform="translate(-329.732 -128.989)"/><g transform="translate(10.438)"><g transform="translate(57.064 105.365)"><path class="c" d="M538.173,305.559l-1.5,5.558,0,0a.229.229,0,0,1-.183.168l-69.835,18.676a.887.887,0,0,1-.762-.238l-8.358-8.341a.352.352,0,0,1-.124-.268h0v0c0-.006,0-.011,0-.017l1.513-5.614,4.066,4,64.439-17.233a.887.887,0,0,1,.762.238l2.868,2.863Z" transform="translate(-457.407 -296.642)"/><path class="d" d="M530.282,291.659l-69.835,18.676c-.228.061-.256.266-.064.458l8.358,8.341a.888.888,0,0,0,.762.238L539.338,300.7c.228-.061.257-.266.064-.459l-8.358-8.341A.886.886,0,0,0,530.282,291.659Z" transform="translate(-458.75 -291.642)"/><path class="e" d="M536.247,298.8,470.4,316.412c-.156.042-.176.182-.043.314l2.1,2.1a.607.607,0,0,0,.521.163l65.851-17.611c.156-.041.176-.182.043-.313l-2.1-2.1A.607.607,0,0,0,536.247,298.8Z" transform="translate(-463.467 -295.018)"/><path class="f" d="M538.824,301.373l-1.339.358-1.133-1.131a.607.607,0,0,0-.521-.163L471.319,317.69l-.966-.964c-.132-.132-.113-.272.043-.314l65.851-17.61a.607.607,0,0,1,.521.163l2.1,2.1C539,301.191,538.98,301.332,538.824,301.373Z" transform="translate(-463.467 -295.018)"/></g><path class="g" d="M350.21,106.615l54.783-14.651h0c-2.281,8.5.922,20.428,7.154,26.648l55.437,55.329c7.326,7.311,11.09,21.335,8.409,31.323h0l-54.783,14.65h0c2.681-9.988-1.083-24.011-8.409-31.323l-55.437-55.329c-6.232-6.22-9.435-18.15-7.154-26.647Z" transform="translate(-349.475 -91.964)"/><path class="h" d="M539.94,305.482l-54.783,14.65c.118-.438.218-.887.311-1.34h0l54.778-14.647C540.158,304.6,540.057,305.045,539.94,305.482Z" transform="translate(-413.422 -192.183)"/><g class="i" transform="translate(34.659 42.957)"><path class="j" d="M457.738,233.456l-12.408,3.318.877.875,12.408-3.318Z" transform="translate(-429.31 -201.752)"/><path class="j" d="M476.852,230.231l-4.467,1.195.877.875,4.468-1.195Z" transform="translate(-442.062 -200.229)"/><path class="j" d="M487.456,227.732l-3.036.812.877.875,3.036-.812Z" transform="translate(-447.734 -199.048)"/><path class="j" d="M448.3,232.531l-6.761,1.808.877.875,6.761-1.808Z" transform="translate(-427.525 -201.315)"/><path class="j" d="M466.2,227.371l-8.285,2.216.877.875,8.286-2.216Z" transform="translate(-435.242 -198.878)"/><path class="j" d="M480.208,224.872l-3.036.812.877.875,3.036-.812Z" transform="translate(-444.318 -197.697)"/><path class="j" d="M489.085,222.493l-3.036.812.877.875,3.036-.812Z" transform="translate(-448.501 -196.574)"/><path class="j" d="M442.646,229.691,437.755,231l.877.875,4.892-1.308Z" transform="translate(-425.74 -199.973)"/><path class="j" d="M452.265,227.883l-1.672.447.877.875,1.672-.447Z" transform="translate(-431.791 -199.119)"/><path class="j" d="M460.377,225.383l-3.036.812.877.875,3.036-.812Z" transform="translate(-434.971 -197.939)"/><path class="j" d="M452.023,219.232l-18.056,4.829.877.875,18.056-4.829Z" transform="translate(-423.955 -195.033)"/><path class="j" d="M476.172,216.007,471.7,217.2l.877.875,4.468-1.195Z" transform="translate(-441.741 -193.51)"/><path class="j" d="M435.072,222.116l-4.892,1.308.876.875,4.892-1.308Z" transform="translate(-422.171 -196.396)"/><path class="j" d="M452.6,216.3l-9.585,2.563.877.875,9.585-2.563Z" transform="translate(-428.221 -193.648)"/><path class="j" d="M467.768,213.8l-3.036.812.877.875,3.036-.812Z" transform="translate(-438.455 -192.467)"/><path class="j" d="M436.4,215.735l-10.009,2.677.877.875,10.009-2.677Z" transform="translate(-420.385 -193.382)"/><path class="j" d="M456.148,211.106l-7.238,1.936.877.875,7.238-1.936Z" transform="translate(-430.998 -191.195)"/><path class="j" d="M471.077,207.666l-4.892,1.308.877.875,4.892-1.308Z" transform="translate(-439.14 -189.571)"/><path class="j" d="M425.986,215.307l-3.381.9.877.875,3.38-.9Z" transform="translate(-418.6 -193.18)"/><path class="j" d="M437.052,212.082l-4.467,1.195.877.875,4.467-1.195Z" transform="translate(-423.304 -191.656)"/><path class="j" d="M451.819,207.473l-7.2,1.925.877.875,7.2-1.925Z" transform="translate(-428.976 -189.48)"/><path class="j" d="M429.173,207.985l-10.355,2.769.877.875,10.355-2.769Z" transform="translate(-416.816 -189.721)"/><path class="j" d="M451.692,202.107l-9.7,2.595.877.875,9.7-2.595Z" transform="translate(-427.736 -186.945)"/><path class="j" d="M466.962,199.608l-3.036.812.877.875,3.036-.812Z" transform="translate(-438.075 -185.764)"/><path class="j" d="M475.914,197.209l-3.036.812.877.875,3.036-.812Z" transform="translate(-442.294 -184.631)"/><path class="j" d="M421.235,206.3l-6.2,1.659.877.875,6.2-1.659Z" transform="translate(-415.03 -188.926)"/><path class="j" d="M516.4,218.641l8.6-2.3.877.875-8.6,2.3Z" transform="translate(-462.808 -193.667)"/><path class="j" d="M516.1,214.361l6.761-1.808.876.875-6.761,1.808Z" transform="translate(-462.665 -191.879)"/><path class="j" d="M515.85,210.074l4.892-1.308.876.875-4.892,1.308Z" transform="translate(-462.547 -190.09)"/><path class="j" d="M507.857,206.881l7.115-1.9.877.875-7.116,1.9Z" transform="translate(-458.779 -188.301)"/><path class="j" d="M508.275,202.5l4.892-1.308.876.875-4.892,1.308Z" transform="translate(-458.977 -186.512)"/><path class="j" d="M502.005,199.062l6.2-1.659.877.875-6.2,1.659Z" transform="translate(-456.022 -184.723)"/><path class="j" d="M503.559,194.52l3.38-.9.877.875-3.38.9Z" transform="translate(-456.754 -182.934)"/><path class="j" d="M493.776,191.58l6.55-1.752.877.875-6.55,1.752Z" transform="translate(-452.143 -181.145)"/><path class="j" d="M490.643,187.7l6.2-1.659.877.875-6.2,1.659Z" transform="translate(-450.667 -179.357)"/><path class="j" d="M432.989,204l-2.638.706.877.875,2.638-.706Z" transform="translate(-422.251 -187.841)"/><path class="j" d="M444.865,200.033l-5.939,1.588.877.875,5.939-1.588Z" transform="translate(-426.293 -185.965)"/><path class="j" d="M434.338,176.852l-10.022,2.68.877.875,10.022-2.68Z" transform="translate(-419.407 -175.016)"/><path class="j" d="M452.736,173.373l-3.947,1.056.877.875,3.947-1.056Z" transform="translate(-430.941 -173.373)"/></g></g></g><g transform="translate(103.172 60.554)"><g class="m" transform="matrix(1, 0, 0, 1, -128.85, -91.29)"><rect class="k" width="45.525" height="45.525" rx="22.763" transform="translate(128.85 91.29)"/></g><path class="l" d="M26.749,6,11.109,23.029,4,15.288" transform="translate(7.33 8.145)"/></g></g></g></svg>