<svg xmlns="http://www.w3.org/2000/svg" xmlns:xlink="http://www.w3.org/1999/xlink" width="290" height="192" viewBox="0 0 290 192"><defs><style>.a{fill:url(#a);}.b{fill:#343333;}.ai,.c{fill:none;}.d{fill:url(#d);}.e{clip-path:url(#g);}.f{fill:#f5f5f6;}.g{fill:rgba(216,216,216,0.03);}.h{fill:#fafbfd;}.i{fill:url(#p);}.j{fill:url(#r);}.k{fill:url(#s);}.l{opacity:0.6;fill:url(#v);}.m{fill:url(#w);}.n{fill:url(#z);}.o{fill:url(#aa);}.p{fill:url(#ad);}.q{fill:url(#am);}.r{clip-path:url(#ar);}.s{fill:rgba(255,255,255,0.1);}.t{clip-path:url(#as);}.u{fill:#323234;}.v{fill:url(#av);}.w{clip-path:url(#bb);}.x{fill:#bee5ff;}.y{fill:#75c8ff;}.z{fill:#3358b6;}.aa{fill:#00154f;}.ab{fill:#101010;}.ac{fill:#6fcfee;}.ad{fill:#272727;}.ae{fill:#ff4d2f;}.af,.ah{fill:#fff;}.ag{fill:#42c565;}.ah{font-size:14px;font-family:Nunito-SemiBold, Nunito;font-weight:600;}.ai{stroke:#2bc5f4;stroke-linecap:round;stroke-linejoin:round;stroke-width:2px;}.aj{filter:url(#az);}.ak{filter:url(#aw);}.al{filter:url(#at);}.am{filter:url(#ap);}.an{filter:url(#an);}.ao{filter:url(#aj);}.ap{filter:url(#af);}.aq{filter:url(#ab);}.ar{filter:url(#x);}.as{filter:url(#n);}.at{filter:url(#l);}.au{filter:url(#j);}.av{filter:url(#h);}.aw{filter:url(#e);}.ax{filter:url(#b);}</style><linearGradient id="a" x1="-0.164" y1="-0.159" x2="1.148" y2="1.145" gradientUnits="objectBoundingBox"><stop offset="0" stop-color="#fff"/><stop offset="1" stop-color="#f1fbff"/></linearGradient><filter id="b" x="117.912" y="39.284" width="53.77" height="8.94" filterUnits="userSpaceOnUse"><feOffset dy="2" input="SourceAlpha"/><feGaussianBlur stdDeviation="1" result="c"/><feFlood flood-color="#fff"/><feComposite operator="in" in2="c"/><feComposite in="SourceGraphic"/></filter><radialGradient id="d" cx="0.5" cy="0" r="1" gradientUnits="objectBoundingBox"><stop offset="0" stop-color="#2a4893"/><stop offset="1" stop-color="#213054"/></radialGradient><filter id="e" x="92.895" y="35.784" width="12.675" height="12.675" filterUnits="userSpaceOnUse"><feOffset input="SourceAlpha"/><feGaussianBlur stdDeviation="1.5" result="f"/><feFlood flood-opacity="0.4"/><feComposite operator="in" in2="f"/><feComposite in="SourceGraphic"/></filter><clipPath id="g"><path class="a" d="M16,0H290a0,0,0,0,1,0,0V192a0,0,0,0,1,0,0H16A16,16,0,0,1,0,176V16A16,16,0,0,1,16,0Z" transform="translate(0 0.321)"/></clipPath><filter id="h" x="-45.922" y="468.481" width="381.946" height="157.632" filterUnits="userSpaceOnUse"><feOffset dy="3" input="SourceAlpha"/><feGaussianBlur stdDeviation="25" result="i"/><feFlood flood-opacity="0.122"/><feComposite operator="in" in2="i"/><feComposite in="SourceGraphic"/></filter><filter id="j" x="2.99" y="514.039" width="284.307" height="65.957" filterUnits="userSpaceOnUse"><feOffset dy="3" input="SourceAlpha"/><feGaussianBlur stdDeviation="10" result="k"/><feFlood flood-opacity="0.078"/><feComposite operator="in" in2="k"/><feComposite in="SourceGraphic"/></filter><filter id="l" x="21.315" y="525.656" width="247.844" height="41.978" filterUnits="userSpaceOnUse"><feOffset dy="3" input="SourceAlpha"/><feGaussianBlur stdDeviation="6.5" result="m"/><feFlood flood-opacity="0.239"/><feComposite operator="in" in2="m"/><feComposite in="SourceGraphic"/></filter><filter id="n" x="17.536" y="13.484" width="255.401" height="526.439" filterUnits="userSpaceOnUse"><feOffset input="SourceAlpha"/><feGaussianBlur result="o"/><feFlood flood-color="#fff" flood-opacity="0.451"/><feComposite operator="in" in2="o"/><feComposite in="SourceGraphic"/></filter><linearGradient id="p" x1="0.5" y1="-0.008" x2="0.5" y2="1" gradientUnits="objectBoundingBox"><stop offset="0" stop-color="#fff" stop-opacity="0"/><stop offset="0.031" stop-color="#fff"/><stop offset="0.968" stop-color="#fff"/><stop offset="1" stop-color="#f1f3f4" stop-opacity="0"/></linearGradient><linearGradient id="r" y1="0.5" x2="0.949" y2="0.5" gradientUnits="objectBoundingBox"><stop offset="0" stop-color="#969696"/><stop offset="0.33" stop-color="#bebfc1"/><stop offset="0.927" stop-color="#e0e1e3"/><stop offset="1" stop-color="#ebecee"/></linearGradient><linearGradient id="s" x1="1" x2="0.051" xlink:href="#r"/><linearGradient id="v" x1="0.5" x2="0.5" y2="1" gradientUnits="objectBoundingBox"><stop offset="0" stop-color="#2c2c2c"/><stop offset="1" stop-color="#1d1d1d"/></linearGradient><linearGradient id="w" x1="0.5" x2="0.5" y2="1" gradientUnits="objectBoundingBox"><stop offset="0" stop-color="#afb0b1"/><stop offset="0.159" stop-color="#dddedf"/><stop offset="0.774" stop-color="#f4f5f6"/><stop offset="0.774" stop-color="#f3f4f5"/><stop offset="0.877" stop-color="#dfe0e1"/><stop offset="1" stop-color="#4d4e4f"/></linearGradient><filter id="x" x="10.409" y="69.62" width="8.205" height="24.373" filterUnits="userSpaceOnUse"><feOffset dx="2" input="SourceAlpha"/><feGaussianBlur stdDeviation="1" result="y"/><feFlood flood-opacity="0.102"/><feComposite operator="in" in2="y"/><feComposite in="SourceGraphic"/></filter><linearGradient id="z" x1="0.5" x2="0.5" y2="0.983" gradientUnits="objectBoundingBox"><stop offset="0" stop-color="#fffcfc"/><stop offset="0.021" stop-color="#6e6f6f"/><stop offset="0.142" stop-color="#f7f8f9"/><stop offset="0.849" stop-color="#f4f5f6"/><stop offset="0.894" stop-color="#a4a6a8"/><stop offset="1" stop-color="#707579"/></linearGradient><linearGradient id="aa" x1="0.5" x2="0.5" y2="1" gradientUnits="objectBoundingBox"><stop offset="0" stop-color="#afb0b1"/><stop offset="0.082" stop-color="#eff0f1"/><stop offset="0.159" stop-color="#dddedf"/><stop offset="0.774" stop-color="#f4f5f6"/><stop offset="0.774" stop-color="#f3f4f5"/><stop offset="0.877" stop-color="#dfe0e1"/><stop offset="0.953" stop-color="#fff"/><stop offset="1" stop-color="#4d4e4f"/></linearGradient><filter id="ab" x="11.144" y="109.306" width="7.47" height="40.541" filterUnits="userSpaceOnUse"><feOffset dx="2" input="SourceAlpha"/><feGaussianBlur stdDeviation="1" result="ac"/><feFlood flood-opacity="0.102"/><feComposite operator="in" in2="ac"/><feComposite in="SourceGraphic"/></filter><linearGradient id="ad" x1="0.5" x2="0.5" y2="0.983" gradientUnits="objectBoundingBox"><stop offset="0" stop-color="#fffcfc"/><stop offset="0.021" stop-color="#2e2f2f"/><stop offset="0.047" stop-color="#383838"/><stop offset="0.113" stop-color="#e4e5e6"/><stop offset="0.142" stop-color="#f7f8f9"/><stop offset="0.849" stop-color="#f4f5f6"/><stop offset="0.894" stop-color="#8d8e8f"/><stop offset="0.98" stop-color="#404142"/><stop offset="1" stop-color="#fff"/></linearGradient><filter id="af" x="11.144" y="151.931" width="7.47" height="39.806" filterUnits="userSpaceOnUse"><feOffset dx="2" input="SourceAlpha"/><feGaussianBlur stdDeviation="1" result="ag"/><feFlood flood-opacity="0.102"/><feComposite operator="in" in2="ag"/><feComposite in="SourceGraphic"/></filter><filter id="aj" x="275.474" y="108.97" width="8.234" height="40.973" filterUnits="userSpaceOnUse"><feOffset dx="2" input="SourceAlpha"/><feGaussianBlur stdDeviation="1" result="ak"/><feFlood flood-opacity="0.102"/><feComposite operator="in" in2="ak"/><feComposite in="SourceGraphic"/></filter><radialGradient id="am" cx="0.168" cy="0.113" r="1.016" gradientUnits="objectBoundingBox"><stop offset="0.119" stop-color="#fafafa"/><stop offset="0.142" stop-color="#bcbdbf"/><stop offset="0.161" stop-color="#636466"/><stop offset="0.281" stop-color="#5e5f61"/><stop offset="0.301" stop-color="#c5c6c8"/><stop offset="0.379" stop-color="#dedfe1"/><stop offset="0.401" stop-color="#fff"/><stop offset="0.498" stop-color="#f7f7f7"/><stop offset="0.513" stop-color="#acadaf"/><stop offset="0.528" stop-color="#444547"/><stop offset="0.615" stop-color="#414244"/><stop offset="0.63" stop-color="#757678"/><stop offset="0.731" stop-color="#707173"/><stop offset="0.752" stop-color="#fff"/><stop offset="0.793" stop-color="#fefefe"/><stop offset="0.8" stop-color="#bcbdbf"/><stop offset="0.876" stop-color="#acadaf"/><stop offset="0.937" stop-color="#6f7072"/><stop offset="0.962" stop-color="#bcbdbf"/><stop offset="0.969" stop-color="#f3f3f3"/></radialGradient><filter id="an" x="123.791" y="491.994" width="42.011" height="42.011" filterUnits="userSpaceOnUse"><feOffset dy="2" input="SourceAlpha"/><feGaussianBlur stdDeviation="1" result="ao"/><feFlood flood-color="#fff" flood-opacity="0.702"/><feComposite operator="in" in2="ao"/><feComposite in="SourceGraphic"/></filter><filter id="ap" x="117.912" y="39.284" width="53.77" height="8.94" filterUnits="userSpaceOnUse"><feOffset dy="2" input="SourceAlpha"/><feGaussianBlur stdDeviation="1" result="aq"/><feFlood flood-color="#fff"/><feComposite operator="in" in2="aq"/><feComposite in="SourceGraphic"/></filter><clipPath id="ar"><g class="ax" transform="matrix(1, 0, 0, 1, 0, 0)"><rect class="b" width="47.77" height="2.94" rx="1.47" transform="translate(0)"/></g></clipPath><clipPath id="as"><rect class="c" width="47.77" height="2.94" rx="1.47" transform="translate(0)"/></clipPath><filter id="at" x="142.959" y="24.116" width="5.144" height="7.144" filterUnits="userSpaceOnUse"><feOffset dy="2" input="SourceAlpha"/><feGaussianBlur result="au"/><feFlood flood-color="#fff"/><feComposite operator="in" in2="au"/><feComposite in="SourceGraphic"/></filter><radialGradient id="av" cx="1.211" cy="1.341" r="1.007" gradientUnits="objectBoundingBox"><stop offset="0" stop-color="#fff"/><stop offset="1" stop-color="#252525"/></radialGradient><filter id="aw" x="95.19" y="37.344" width="8.084" height="10.084" filterUnits="userSpaceOnUse"><feOffset dy="2" input="SourceAlpha"/><feGaussianBlur result="ax"/><feFlood flood-color="#fff"/><feComposite operator="in" in2="ax"/><feComposite in="SourceGraphic"/></filter><filter id="az" x="92.895" y="35.784" width="12.675" height="12.675" filterUnits="userSpaceOnUse"><feOffset input="SourceAlpha"/><feGaussianBlur stdDeviation="1.5" result="ba"/><feFlood flood-opacity="0.4"/><feComposite operator="in" in2="ba"/><feComposite in="SourceGraphic"/></filter><clipPath id="bb"><g class="aw" transform="matrix(1, 0, 0, 1, 0, 0)"><circle class="d" cx="1.837" cy="1.837" r="1.837" transform="translate(0 0)"/></g></clipPath></defs><g class="e" transform="translate(0 -0.321)"><g transform="translate(11.409 9.337)"><g transform="translate(17.669 531.465)"><g class="av" transform="matrix(1, 0, 0, 1, -29.08, -540.48)"><path class="c" d="M115.973,7.632c64.05,0,115.973-1.9,115.973-4.234S160.827,0,115.973,0,0,1.06,0,3.4,51.923,7.632,115.973,7.632Z" transform="translate(29.08 540.48)"/></g><g class="au" transform="matrix(1, 0, 0, 1, -29.08, -540.48)"><path class="c" d="M112.154,5.957c61.941,0,112.154-1.479,112.154-3.3S155.531,0,112.154,0,0,.827,0,2.652,50.213,5.957,112.154,5.957Z" transform="translate(32.99 541.04)"/></g><g class="at" transform="matrix(1, 0, 0, 1, -29.08, -540.48)"><path class="c" d="M104.422,2.978c57.671,0,104.422-.74,104.422-1.652S144.809,0,104.422,0,0,.414,0,1.326,46.751,2.978,104.422,2.978Z" transform="translate(40.81 542.16)"/></g></g><g transform="translate(0 0)"><g transform="translate(1.659)"><path class="f" d="M38.764,0H225.572c23.158,0,38.764,15.608,38.764,38.768V496.606c0,23.161-15.606,38.768-38.764,38.768H38.764C15.606,535.374,0,519.766,0,496.606V38.768C0,15.608,15.606,0,38.764,0Z" transform="translate(0 0)"/><path class="g" d="M38.764,0H225.572c23.158,0,38.764,15.608,38.764,38.768V496.606c0,23.161-15.606,38.768-38.764,38.768H38.764C15.606,535.374,0,519.766,0,496.606V38.768C0,15.608,15.606,0,38.764,0Z" transform="translate(0 0)"/></g><g class="as" transform="matrix(1, 0, 0, 1, -11.41, -9.02)"><path class="h" d="M34.324,0C13.619,0,0,13.622,0,34.333V492.106c0,20.711,13.619,34.333,34.324,34.333H221.077c20.706,0,34.324-13.622,34.324-34.333V34.333C255.4,13.622,241.782,0,221.077,0Z" transform="translate(17.54 13.48)"/></g><g transform="translate(7.802 10.058)"><path class="i" d="M1.043,514.676h0a28.017,28.017,0,0,0,4.94-4.913,29.519,29.519,0,0,0,3.662-6.1,33.942,33.942,0,0,0,2.275-7.184,41.489,41.489,0,0,0,.782-8.157V27.125a41.263,41.263,0,0,0-.855-8.509,33.54,33.54,0,0,0-2.483-7.439A29.211,29.211,0,0,0,5.374,4.93,28.042,28.042,0,0,0,0,0,28.451,28.451,0,0,1,6.6,4.826a28.349,28.349,0,0,1,4.928,6.513,32.147,32.147,0,0,1,3.082,8.029,40.122,40.122,0,0,1,1.065,9.374V486.515a40.3,40.3,0,0,1-.992,9.061,32.461,32.461,0,0,1-2.872,7.816,28.525,28.525,0,0,1-4.6,6.418A28.23,28.23,0,0,1,1.043,514.676Z" transform="translate(236.37 0)"/><path class="i" d="M14.637,514.676h0a28.017,28.017,0,0,1-4.94-4.913,29.518,29.518,0,0,1-3.662-6.1,33.942,33.942,0,0,1-2.275-7.184,41.489,41.489,0,0,1-.782-8.157V27.125a41.263,41.263,0,0,1,.855-8.509,33.54,33.54,0,0,1,2.483-7.439,29.211,29.211,0,0,1,3.99-6.246A28.042,28.042,0,0,1,15.68,0,28.1,28.1,0,0,0,4.147,11.339a32.147,32.147,0,0,0-3.082,8.029A40.122,40.122,0,0,0,0,28.742V486.515a40.3,40.3,0,0,0,.992,9.061,32.461,32.461,0,0,0,2.872,7.816,28.525,28.525,0,0,0,4.6,6.418A28.23,28.23,0,0,0,14.637,514.676Z" transform="translate(0 0)"/></g><g transform="translate(1.47 39.352)"><rect class="j" width="5.144" height="6.614" transform="translate(0 0)"/><rect class="k" width="3.675" height="6.614" transform="translate(260.161 0)"/><rect class="j" width="5.144" height="6.614" transform="translate(0 450.505)"/><rect class="k" width="3.675" height="6.614" transform="translate(260.161 450.505)"/></g><g transform="translate(116.515 534.071)"><path class="l" d="M2.8,0H33.736a5.1,5.1,0,0,1,2.75,1.3H0A5.693,5.693,0,0,1,2.8,0Z" transform="translate(0 0)"/></g><g transform="translate(0 63.604)"><g class="ar" transform="matrix(1, 0, 0, 1, -11.41, -72.62)"><path class="m" d="M2.2,0h0a0,0,0,0,1,0,0V18.373a0,0,0,0,1,0,0h0a2.2,2.2,0,0,1-2.2-2.2V2.2A2.2,2.2,0,0,1,2.2,0Z" transform="translate(11.41 72.62)"/></g><rect class="n" width="0.735" height="17.638" rx="0.367" transform="translate(0.735 0.735)"/></g><g transform="translate(0.735 103.29)"><g class="aq" transform="matrix(1, 0, 0, 1, -12.14, -112.31)"><path class="o" d="M1.47,0h0a0,0,0,0,1,0,0V34.541a0,0,0,0,1,0,0h0A1.47,1.47,0,0,1,0,33.071V1.47A1.47,1.47,0,0,1,1.47,0Z" transform="translate(12.14 112.31)"/></g><rect class="p" height="33.806" transform="translate(0.735 0)"/></g><g transform="translate(0.735 145.915)"><g class="ap" transform="matrix(1, 0, 0, 1, -12.14, -154.93)"><path class="o" d="M1.47,0h0a0,0,0,0,1,0,0V33.806a0,0,0,0,1,0,0h0A1.47,1.47,0,0,1,0,32.336V1.47A1.47,1.47,0,0,1,1.47,0Z" transform="translate(12.14 154.93)"/></g><rect class="p" height="33.806" transform="translate(0.735 0)"/></g><g transform="translate(265.065 102.954)"><g class="ao" transform="matrix(1, 0, 0, 1, -276.47, -111.97)"><path class="o" d="M-9.766.992A.927.927,0,0,0-10.8.071l-.38.045A.927.927,0,0,0-12,1.037V34.065a.927.927,0,0,0,.817.921l.38.045a.927.927,0,0,0,1.037-.921Z" transform="translate(288.47 111.91)"/></g><rect class="p" width="0.735" height="34.541" rx="0.367" transform="translate(0.976 0.336)"/></g><g transform="translate(16.365 15.1)"><g class="an" transform="matrix(1, 0, 0, 1, -27.77, -24.12)"><path class="q" d="M0,18.006A18.006,18.006,0,1,1,18.006,36.011,18.005,18.005,0,0,1,0,18.006Z" transform="translate(126.79 492.99)"/></g><g transform="translate(93.137 16.168)"><g class="am" transform="matrix(1, 0, 0, 1, -120.91, -40.28)"><rect class="b" width="47.77" height="2.94" rx="1.47" transform="translate(120.91 40.28)"/></g><g class="r" transform="translate(0 0)"><path class="s" d="M0,3.675V3.307H47.77v.367ZM0,2.94V2.572H47.77V2.94Zm0-.919V1.654H47.77v.367Zm0-.735V.919H47.77v.367ZM0,.367V0H47.77V.367Z" transform="translate(-0.735)"/><path class="s" d="M46.659,4.41V0h.376V4.41Zm-.941,0V0h.376V4.41Zm-.941,0V0h.376V4.41Zm-1.129,0V0h.376V4.41Zm-.941,0V0h.376V4.41Zm-1.129,0V0h.376V4.41Zm-.941,0V0h.376V4.41Zm-1.129,0V0h.376V4.41Zm-1.129,0V0h.376V4.41Zm-.941,0V0h.376V4.41Zm-1.129,0V0h.376V4.41Zm-.941,0V0h.376V4.41Zm-1.129,0V0h.376V4.41Zm-.941,0V0h.376V4.41Zm-1.129,0V0h.376V4.41Zm-.941,0V0h.376V4.41Zm-1.129,0V0h.376V4.41Zm-.941,0V0h.376V4.41Zm-1.129,0V0h.376V4.41Zm-.941,0V0h.376V4.41Zm-1.129,0V0h.376V4.41Zm-.941,0V0H25.4V4.41Zm-1.129,0V0h.376V4.41Zm-.941,0V0h.376V4.41Zm-1.129,0V0H22.2V4.41Zm-.941,0V0h.376V4.41Zm-1.129,0V0h.376V4.41Zm-1.129,0V0H19V4.41Zm-.941,0V0h.376V4.41Zm-1.129,0V0h.376V4.41Zm-.941,0V0h.376V4.41Zm-1.129,0V0h.376V4.41Zm-.941,0V0h.376V4.41Zm-1.129,0V0h.376V4.41Zm-.941,0V0h.376V4.41Zm-1.129,0V0h.376V4.41Zm-.941,0V0h.376V4.41Zm-1.129,0V0h.376V4.41Zm-.941,0V0h.376V4.41Zm-1.129,0V0h.376V4.41Zm-.941,0V0h.376V4.41Zm-1.129,0V0h.376V4.41Zm-.941,0V0h.376V4.41Zm-1.129,0V0h.376V4.41Zm-.941,0V0h.376V4.41ZM0,4.41V0H.376V4.41Z" transform="translate(0.735 -0.735)"/></g><rect class="c" width="47.77" height="2.94" rx="1.47" transform="translate(0 0)"/></g><g class="al" transform="matrix(1, 0, 0, 1, -27.77, -24.12)"><circle class="u" cx="2.572" cy="2.572" r="2.572" transform="translate(142.96 24.12)"/></g><g transform="translate(67.415 13.228)"><g class="ak" transform="matrix(1, 0, 0, 1, -95.19, -37.34)"><circle class="v" cx="4.042" cy="4.042" r="4.042" transform="translate(95.19 37.34)"/></g><g class="aj" transform="matrix(1, 0, 0, 1, -95.19, -37.34)"><circle class="d" cx="1.837" cy="1.837" r="1.837" transform="translate(97.39 40.28)"/></g><g class="w" transform="translate(2.205 2.94)"><circle class="x" transform="translate(0 2.205)"/><circle class="x" transform="translate(0 2.205)"/><circle class="y" transform="translate(3.675 0)"/><circle class="y" transform="translate(3.675 0)"/><ellipse class="z" cx="1.117" cy="0.465" rx="1.117" ry="0.465" transform="matrix(0.875, -0.485, 0.485, 0.875, 0.187, 0.344)"/><circle class="aa" cx="1.117" cy="1.117" r="1.117" transform="translate(0.932 0.807) rotate(-16)"/></g></g><path class="ab" d="M1.862,0h231.2a1.862,1.862,0,0,1,1.862,1.862V412.886a1.862,1.862,0,0,1-1.862,1.862H1.862A1.862,1.862,0,0,1,0,412.886V1.862A1.862,1.862,0,0,1,1.862,0Z" transform="translate(0 45.4)"/></g></g><rect class="ac" width="231.499" height="410.82" transform="translate(18.373 62.135)"/><g transform="translate(31.782 77.864)"><rect class="ad" width="205.421" height="83.938" rx="10"/><g transform="translate(13.039 8.143)"><g transform="translate(0 35.042)"><g transform="translate(146.745 0.006)"><circle class="ae" cx="16.299" cy="16.299" r="16.299"/><path class="af" d="M9.779,8.63a12.151,12.151,0,0,0-3.749.587v2.526a.821.821,0,0,1-.456.733,9.381,9.381,0,0,0-2.168,1.508.8.8,0,0,1-.57.228.812.812,0,0,1-.579-.236L.236,11.955A.779.779,0,0,1,0,11.384a.812.812,0,0,1,.236-.579,13.867,13.867,0,0,1,19.086,0,.826.826,0,0,1,0,1.157L17.3,13.984a.812.812,0,0,1-.579.236.836.836,0,0,1-.57-.228,9.185,9.185,0,0,0-2.176-1.508.812.812,0,0,1-.456-.733V9.225A11.829,11.829,0,0,0,9.779,8.63Z" transform="translate(6.519 6.039)"/></g><g transform="translate(0 0)"><circle class="ag" cx="16.5" cy="16.5" r="16.5" transform="translate(-0.23 -0.065)"/><path class="af" d="M17.244,14.491a12.325,12.325,0,0,0-2.575-1.723c-.772-.371-1.054-.363-1.6.031-.455.329-.749.634-1.272.52a7.588,7.588,0,0,1-2.556-1.891A7.534,7.534,0,0,1,7.35,8.872c-.111-.527.195-.817.52-1.272.393-.546.4-.829.031-1.6A12.082,12.082,0,0,0,6.177,3.424c-.562-.562-.688-.439-1-.329a5.673,5.673,0,0,0-.913.485,2.754,2.754,0,0,0-1.1,1.157c-.218.47-.47,1.345.814,3.629a20.25,20.25,0,0,0,3.56,4.748h0l0,0,0,0h0a20.329,20.329,0,0,0,4.748,3.56c2.284,1.284,3.159,1.031,3.629.814a2.707,2.707,0,0,0,1.157-1.1,5.674,5.674,0,0,0,.485-.913C17.683,15.178,17.809,15.052,17.244,14.491Z" transform="translate(5.971 5.969)"/></g></g><g transform="translate(0 0)"><text class="ah" transform="translate(-0.23 15.978)"><tspan x="0" y="0">+62 999-9999-</tspan></text><g transform="translate(108.386)"><text class="ah" transform="translate(6.383 15.978)"><tspan x="0" y="0">1234</tspan></text><rect class="ai" width="49" height="22" rx="5" transform="translate(0.383 -0.023)"/></g></g></g></g></g></g></svg>