<svg id="Group_23308" data-name="Group 23308" xmlns="http://www.w3.org/2000/svg" width="20" height="20" viewBox="0 0 20 20">
  <circle id="Ellipse_620" data-name="Ellipse 620" cx="10" cy="10" r="10" fill="#1685c7"/>
  <path id="Icon_ionic-ios-call" data-name="Icon ionic-ios-call" d="M14.647,12.4a10.079,10.079,0,0,0-2.105-1.409c-.631-.3-.862-.3-1.309.025-.372.269-.612.519-1.04.425A6.206,6.206,0,0,1,8.1,9.892,6.161,6.161,0,0,1,6.556,7.8c-.091-.431.159-.669.425-1.04.322-.447.331-.678.025-1.309A9.88,9.88,0,0,0,5.6,3.347c-.459-.459-.562-.359-.815-.269a4.64,4.64,0,0,0-.747.4,2.252,2.252,0,0,0-.9.947c-.178.384-.384,1.1.665,2.968a16.559,16.559,0,0,0,2.911,3.883h0l0,0,0,0h0A16.624,16.624,0,0,0,10.6,14.19c1.868,1.05,2.583.843,2.968.665a2.214,2.214,0,0,0,.947-.9,4.64,4.64,0,0,0,.4-.747C15.006,12.959,15.109,12.856,14.647,12.4Z" transform="translate(1.006 0.998)" fill="#fff"/>
</svg>
