<svg id="Group_23308" data-name="Group 23308" xmlns="http://www.w3.org/2000/svg" width="20" height="20" viewBox="0 0 20 20">
  <circle id="Ellipse_620" data-name="Ellipse 620" cx="10" cy="10" r="10" fill="#128c7e"/>
  <path id="Icon_ionic-logo-whatsapp" data-name="Icon ionic-logo-whatsapp" d="M7.609,1.5A5.868,5.868,0,0,0,1.718,7.345a5.785,5.785,0,0,0,.845,3.018L1.5,13.5l3.262-1.036A5.9,5.9,0,0,0,13.5,7.345,5.868,5.868,0,0,0,7.609,1.5Zm2.929,8.065a1.522,1.522,0,0,1-1.042.672c-.276.015-.284.214-1.79-.44A6.146,6.146,0,0,1,5.222,7.449a2.889,2.889,0,0,1-.556-1.566A1.669,1.669,0,0,1,5.24,4.658a.577.577,0,0,1,.408-.172c.119,0,.2,0,.283,0s.219-.018.333.285S6.651,5.82,6.686,5.9a.273.273,0,0,1,0,.262,1.023,1.023,0,0,1-.16.243c-.079.084-.165.189-.236.253s-.16.149-.078.3a4.508,4.508,0,0,0,.8,1.064A4.11,4.11,0,0,0,8.2,8.805c.148.08.236.072.327-.025s.392-.422.5-.567.205-.117.341-.062.861.443,1.009.524.246.121.282.185A1.237,1.237,0,0,1,10.538,9.565Z" transform="translate(2.5 2.5)" fill="#fff"/>
</svg>
