<svg xmlns="http://www.w3.org/2000/svg" xmlns:xlink="http://www.w3.org/1999/xlink" width="349" height="100" viewBox="0 0 349 100"><defs><filter id="a" x="0" y="0" width="349" height="100" filterUnits="userSpaceOnUse"><feOffset dy="2" input="SourceAlpha"/><feGaussianBlur stdDeviation="1" result="b"/><feFlood flood-opacity="0.102"/><feComposite operator="in" in2="b"/><feComposite in="SourceGraphic"/></filter></defs><g transform="matrix(1, 0, 0, 1, 0, 0)" filter="url(#a)"><path d="M-549-868H-888a2,2,0,0,1-2-2V-901.73A14.979,14.979,0,0,0-882-915a14.976,14.976,0,0,0-8-13.269V-960a2,2,0,0,1,2-2h339a2,2,0,0,1,2,2v31.73A14.975,14.975,0,0,0-555-915a14.977,14.977,0,0,0,8,13.271V-870A2,2,0,0,1-549-868Z" transform="translate(893 963)" fill="#f44336"/></g></svg>