<svg xmlns="http://www.w3.org/2000/svg" width="100" height="100" viewBox="0 0 100 100"><defs><style>.a{fill:#afb0af;}</style></defs><path class="a" d="M50,.563a50,50,0,1,0,50,50A49.991,49.991,0,0,0,50,.563Zm0,19.355A17.742,17.742,0,1,1,32.258,37.659,17.742,17.742,0,0,1,50,19.917Zm0,69.355a38.635,38.635,0,0,1-29.536-13.75A22.479,22.479,0,0,1,40.323,63.466a4.933,4.933,0,0,1,1.431.222A26.694,26.694,0,0,0,50,65.079a26.592,26.592,0,0,0,8.246-1.391,4.933,4.933,0,0,1,1.431-.222A22.479,22.479,0,0,1,79.536,75.522,38.635,38.635,0,0,1,50,89.272Z" transform="translate(0 -0.563)"/></svg>