<svg xmlns="http://www.w3.org/2000/svg" width="25.001" height="12.863" viewBox="0 0 25.001 12.863">
  <g id="Group_24764" data-name="Group 24764" transform="translate(0.5)">
    <path id="Path_31006" data-name="Path 31006" d="M9.416,2.621c-.823,0-1.464.411-1.464.945s.641.953,1.464.953a.963.963,0,0,0,.713-.217.881.881,0,0,0,.184-.677v-.11a.881.881,0,0,0-.184-.677A.963.963,0,0,0,9.416,2.621ZM7.425,3.659c-.513.221-.561.243-.578.251a.556.556,0,0,0-.361.618.659.659,0,0,0,.8.42,1.817,1.817,0,0,0,.629-.335c.346,1.029.679,2.742.042,3.683a1.7,1.7,0,0,1-1.531.679H6.043c-.392,0-.656-.025-.77-.177-.1-.131-.167-.464.051-1.264a6.426,6.426,0,0,1-2.67.369,7.438,7.438,0,0,1-2.4-.276A3.926,3.926,0,0,0,0,8.975c0,1.823,5.569,1.873,6.2,1.873a12.5,12.5,0,0,0,1.6-.1,2.778,2.778,0,0,1-.032-.437,3,3,0,0,1,3.054-2.936c.015,0,.036.008.051.008-.063-.1-.137-.209-.217-.327a12.129,12.129,0,0,1-1.148-2.01c-.03,0-.061.008-.093.008a2.074,2.074,0,0,1-1.833-.869l-.008-.008A1.231,1.231,0,0,1,7.425,3.659ZM.745,5.76a.884.884,0,0,0-.745.9c0,.175,0,.7,2.654.7,2.7,0,2.7-.529,2.7-.7,0-.418-.327-.9-.745-.9ZM10.823,7.911a2.464,2.464,0,0,0-2.519,2.4c0,.886.437,1.072.8,1.072a.619.619,0,0,0,.327-.082,1.873,1.873,0,0,0,3.691-.453,1.9,1.9,0,0,0-.192-.827.531.531,0,0,0,.46-.586C13.393,8.8,12.5,7.911,10.823,7.911Zm1.131,2.133a1.069,1.069,0,0,1-.7,1.875,1.072,1.072,0,0,1-1.072-1.072,1.031,1.031,0,0,1,.025-.243,4.348,4.348,0,0,1,.612-.3A3.377,3.377,0,0,1,11.954,10.044Zm-.7.268a.536.536,0,1,0,.536.536A.537.537,0,0,0,11.249,10.312ZM.821,10.588a1.806,1.806,0,0,0-.017.259,1.872,1.872,0,0,0,3.683.479c-.268-.019-.542-.038-.821-.068a1.07,1.07,0,0,1-2.059-.386A5.639,5.639,0,0,1,.821,10.588Zm1.356.428a.53.53,0,0,0,.92.167C2.784,11.139,2.476,11.082,2.177,11.016Z" transform="translate(5.146 -2.621)" fill="#272727"/>
    <path id="Path_31095" data-name="Path 31095" d="M26.928,32.313s-3.58.709-3.58,3.034,5.637,4.272,11.747,4.272,12.122-1.581,12.25-4.272-4.2-3.034-4.2-3.034" transform="translate(-23.347 -27.256)" fill="none" stroke="#272727" stroke-linecap="round" stroke-linejoin="round" stroke-width="1"/>
  </g>
</svg>
